<?xml version="1.0" encoding="UTF-8"?>
<svg width="140px" height="60px" viewBox="0 0 140 60" version="1.1" xmlns="http://www.w3.org/2000/svg" xmlns:xlink="http://www.w3.org/1999/xlink">
    <!-- Generator: Sketch 64 (93537) - https://sketch.com -->
    <title>Erste</title>
    <desc>Created with Sketch.</desc>
    <defs>
        <polygon id="path-1" points="1.49625935e-05 0 136.309227 0 136.309227 60 1.49625935e-05 60"></polygon>
    </defs>
    <g id="Page-1" stroke="none" stroke-width="1" fill="none" fill-rule="evenodd">
        <g id="Bank360_Logok_Banki_Biztositoi" transform="translate(-371.000000, -419.000000)">
            <g id="Erste" transform="translate(369.000000, 419.000000)">
                <g id="Group-3" transform="translate(2.000000, 0.000000)">
                    <mask id="mask-2" fill="white">
                        <use xlink:href="#path-1"></use>
                    </mask>
                    <g id="Clip-2"></g>
                    <path d="M131.072334,60 L5.23692269,60 C2.35662344,60 1.49625935e-05,57.6433915 1.49625935e-05,54.7630923 L1.49625935e-05,5.23690773 C1.49625935e-05,2.35660848 2.35662344,0 5.23692269,0 L131.072334,0 C133.952633,0 136.309242,2.35660848 136.309242,5.23690773 L136.309242,54.7630923 C136.309242,57.6433915 133.952633,60 131.072334,60" id="Fill-1" fill="#2870ED" mask="url(#mask-2)"></path>
                </g>
                <path d="M31.7831022,23.7833566 C31.7831022,22.9494913 32.1538753,22.5092918 33.0109327,22.5092918 L41.442803,22.5092918 L41.442803,24.130788 C41.442803,24.964803 41.0026035,25.3584688 40.1223541,25.3584688 L35.1420549,25.3584688 L35.1420549,28.4394165 L40.585596,28.4394165 L40.585596,31.1033566 L35.1420549,31.1033566 L35.1420549,34.5085436 L41.5586135,34.5085436 L41.5586135,36.1300399 C41.5586135,36.9639052 41.118414,37.3345287 40.2613566,37.3345287 L33.0109327,37.3345287 C32.1538753,37.3345287 31.7831022,36.8944788 31.7831022,36.0606135 L31.7831022,23.7833566 Z" id="Fill-4" fill="#FFFFFF"></path>
                <path d="M46.2836658,25.3585287 L46.2836658,29.2501496 L48.7854115,29.2501496 C50.1984788,29.2501496 51.1713466,28.7406733 51.1713466,27.2812219 C51.1713466,25.8681546 50.1984788,25.3585287 48.7854115,25.3585287 L46.2836658,25.3585287 Z M42.9248628,23.7600748 C42.9248628,22.9494015 43.2722943,22.5093516 44.1293516,22.5093516 L49.0170324,22.5093516 C52.4916459,22.5093516 54.4375312,24.4320449 54.4375312,27.2812219 C54.4375312,29.3427681 53.4182793,30.8484539 51.4725436,31.5434663 L54.9007731,36.7090025 C55.0165835,36.917581 55.109202,37.12601 55.109202,37.3345885 L52.0978304,37.3345885 C51.4725436,37.3345885 51.2407731,37.2882045 50.8471072,36.6627681 L47.9977805,32.0761347 L46.2836658,32.0761347 L46.2836658,37.3345885 L42.9248628,37.3345885 L42.9248628,23.7600748 Z" id="Fill-6" fill="#FFFFFF"></path>
                <path d="M60.4830025,22.3934813 C63.471182,22.3934813 65.1852968,22.7178703 65.1852968,24.0381696 L65.1852968,25.3122344 L60.8072419,25.3122344 C59.5101347,25.3122344 59.0005087,25.7060499 59.0005087,26.4472968 C59.0005087,28.4626085 65.9729277,28.1150274 65.9729277,33.0722843 C65.9729277,35.4350274 64.5136259,37.4503392 60.2744239,37.4503392 C57.6106334,37.4503392 55.4099352,37.0797157 55.4099352,35.8058005 L55.4099352,34.531586 L60.4366185,34.531586 C61.7570673,34.531586 62.4056958,34.1147282 62.4056958,33.2575212 C62.4056958,31.0801646 55.4563192,31.4045536 55.4563192,26.3546783 C55.4563192,24.130788 57.0314314,22.3934813 60.4830025,22.3934813" id="Fill-8" fill="#FFFFFF"></path>
                <path d="M76.1414913,22.5093516 L76.1414913,24.1770823 C76.1414913,24.9879052 75.6782494,25.3585287 74.821192,25.3585287 L72.7131122,25.3585287 L72.7131122,37.3345885 L69.3543092,37.3345885 L69.3543092,25.3585287 L65.9260798,25.3585287 L65.9260798,23.690798 C65.9260798,22.8799751 66.3661297,22.5093516 67.223187,22.5093516 L76.1414913,22.5093516 Z" id="Fill-10" fill="#FFFFFF"></path>
                <path d="M77.2068429,23.7833566 C77.2068429,22.9494913 77.5774663,22.5092918 78.4346733,22.5092918 L86.866394,22.5092918 L86.866394,24.130788 C86.866394,24.964803 86.4263441,25.3584688 85.5460948,25.3584688 L80.5657955,25.3584688 L80.5657955,28.4394165 L86.0093367,28.4394165 L86.0093367,31.1033566 L80.5657955,31.1033566 L80.5657955,34.5085436 L86.9823541,34.5085436 L86.9823541,36.1300399 C86.9823541,36.9639052 86.5421546,37.3345287 85.6850973,37.3345287 L78.4346733,37.3345287 C77.5774663,37.3345287 77.2068429,36.8944788 77.2068429,36.0606135 L77.2068429,23.7833566 Z" id="Fill-12" fill="#FFFFFF"></path>
                <path d="M91.1964938,33.2856359 L104.427317,33.2856359 L104.427317,31.5101746 L91.2214813,31.5101746 C91.2114564,31.3053367 91.2168429,27.2995511 91.1903591,25.4494264 C91.1677656,23.8702743 92.2444738,22.3343641 94.281182,22.3681796 C97.9926534,22.4299751 101.706968,22.4295262 105.41814,22.3654863 C107.017641,22.3375062 108.4738,23.5120698 108.471857,25.4226434 C108.471556,25.6891272 108.469611,26.0151621 108.469611,26.360798 L95.2266683,26.360798 L95.2266683,28.0954115 L108.469312,28.0918204 C108.469312,28.3291272 108.47395,32.341197 108.468564,34.2073317 C108.463177,36.0852868 107.259436,37.2662843 105.359786,37.2667332 C101.679137,37.2673317 97.9980399,37.2673317 94.3176908,37.2667332 C92.4024788,37.2662843 91.2039751,36.0719701 91.1964938,34.158404 C91.1957456,33.8925187 91.1964938,33.6261845 91.1964938,33.2856359" id="Fill-14" fill="#FFFFFF"></path>
                <path d="M99.8493766,20.5133579 C98.2838404,20.5118603 97.0187531,19.2237307 97.0272389,17.6399401 C97.0353616,16.0844289 98.307182,14.8197905 99.8598504,14.8233739 C101.411471,14.8262244 102.67985,16.0972968 102.682997,17.6510125 C102.685835,19.2316608 101.41581,20.5148529 99.8493766,20.5133579" id="Fill-16" fill="#FFFFFF"></path>
                <rect id="140x60-copy-13" x="0" y="0" width="140" height="60" rx="1"></rect>
            </g>
        </g>
    </g>
</svg>