<svg width="140" height="60" viewBox="0 0 140 60" fill="none" xmlns="http://www.w3.org/2000/svg">
<path fill-rule="evenodd" clip-rule="evenodd" d="M71.5987 7.88413C65.832 7.88413 61.5498 11.8825 61.5498 17.4231C61.5498 23.1922 66.0604 26.9621 71.5987 26.9621C74.2822 26.9621 77.137 25.8197 78.8499 23.7634V16.2236H71.4274V19.5936H74.6819V22.2211C73.9396 22.6781 72.6264 22.9637 71.4274 22.9637C68.6868 22.9637 66.1175 20.9645 66.1175 17.4231C66.1175 14.2244 68.5155 11.9967 71.4274 11.9967C72.7977 11.9967 74.739 12.5679 75.938 13.7103L77.8222 9.88331C76.2806 8.6838 73.9967 7.88413 71.5987 7.88413ZM86.2724 37.6434C88.2708 37.6434 89.4698 38.6144 89.8695 39.6426V37.9861H93.9804V50.9523H89.8695V49.2958C89.4698 50.324 88.2708 51.295 86.2724 51.295C82.447 51.295 80.2773 47.9249 80.2773 44.4978C80.2773 41.0135 82.447 37.6434 86.2724 37.6434ZM87.2431 47.468C88.8418 47.468 90.0408 46.2113 90.0408 44.4978C90.0408 42.7842 88.8989 41.5275 87.2431 41.5275C85.5873 41.5275 84.5024 42.7842 84.5024 44.4978C84.5024 46.1542 85.5873 47.468 87.2431 47.468ZM105.057 37.6434C103.23 37.6434 101.803 38.4431 101.403 39.6426V37.9861C100.033 37.9861 98.6623 37.9861 97.292 37.9861V50.9523H101.403V43.9266C101.403 42.2701 102.374 41.5847 103.516 41.5847C104.772 41.5847 105.571 42.4415 105.571 43.9266V50.9523H109.682V42.4415C109.682 39.4712 107.684 37.6434 105.057 37.6434ZM121.501 44.155L125.098 38.0432H120.302L118.132 42.3272H116.819V31.9886H112.708V51.0094H116.819V46.04H118.132L120.644 51.0094H125.498L121.501 44.155ZM98.5481 23.135C100.147 23.135 101.346 21.8784 101.346 20.1648C101.346 18.4512 100.204 17.1946 98.5481 17.1946C96.8923 17.1946 95.8075 18.4512 95.8075 20.1648C95.7504 21.8784 96.8923 23.135 98.5481 23.135ZM97.5204 13.3676C99.5188 13.3676 100.718 14.3386 101.117 15.3668V13.7103H105.228V26.6765H101.117V25.02C100.718 26.0481 99.5188 27.0192 97.5204 27.0192C93.6949 27.0192 91.5253 23.6491 91.5253 20.2219C91.5253 16.7377 93.6949 13.3676 97.5204 13.3676ZM63.1485 32.4455V50.9523H71.3703C76.0522 50.9523 78.5644 49.1244 78.5644 45.6401C78.5644 43.7552 77.0799 41.8703 75.4241 41.4704C76.9087 40.785 77.7651 39.4712 77.7651 37.6434C77.7651 34.2162 75.5954 32.3884 70.9135 32.3884H63.1485V32.4455ZM71.199 43.5267C72.8548 43.5267 74.0538 44.0408 74.0538 45.4117C74.0538 46.7825 73.0261 47.2966 71.3132 47.2966H67.5449V43.5267H71.199ZM70.7993 36.1583C72.398 36.1583 73.1974 36.6153 73.1974 37.9861C73.1974 39.357 72.398 39.814 70.8564 39.814H67.5449V36.1583H70.7993ZM94.3801 9.59772L100.946 6.28478L102.431 9.19788L95.8646 12.4537L94.3801 9.59772ZM128.067 13.7103H123.956V26.6765H128.067V13.7103ZM126.011 7.08446C124.641 7.08446 123.556 8.16973 123.556 9.5406C123.556 10.9115 124.641 11.9967 126.011 11.9967C127.382 11.9967 128.467 10.9115 128.467 9.5406C128.467 8.16973 127.382 7.08446 126.011 7.08446ZM139.201 13.7103H135.546V9.59772H131.436C131.436 15.1383 131.436 16.1093 131.436 21.7071C131.436 24.9629 132.977 27.0192 136.46 27.0192C137.945 27.0192 139.029 26.7336 140 26.2766L138.401 23.0208C138.116 23.135 137.716 23.1922 137.431 23.1922C136.403 23.1922 135.604 22.6781 135.604 21.193V17.4231H139.258V13.7103H139.201ZM116.362 13.3676C114.535 13.3676 113.108 14.1673 112.708 15.3668V13.7103C111.338 13.7103 109.967 13.7103 108.597 13.7103V26.6765H112.708V19.5936C112.708 17.9372 113.679 17.2517 114.821 17.2517C116.077 17.2517 116.876 18.1085 116.876 19.5936V26.6193H120.987V18.1656C120.93 15.1954 118.931 13.3676 116.362 13.3676ZM89.1843 13.3676C87.3573 13.3676 85.9299 14.1673 85.5302 15.3668V13.7103C84.1599 13.7103 82.7896 13.7103 81.4193 13.7103V26.6765H85.5302V19.5936C85.5302 17.9372 86.5008 17.2517 87.6427 17.2517C88.8989 17.2517 89.584 17.6516 89.9837 17.8229L91.8679 14.1102C91.0685 13.6532 90.155 13.3676 89.1843 13.3676ZM16.1582 4H35.571C43.3931 4 50.0163 9.65483 51.4437 17.0804L35.3426 25.1913C35.5139 24.6202 35.571 24.049 35.571 23.4778C35.571 19.8792 32.6591 17.0233 29.1191 17.0233H16.1582V42.8413H32.3165C34.8287 42.8413 37.0555 41.3562 38.0832 39.2428L25.9217 33.131V29.8752H51.8434V39.5855C51.7863 48.5532 44.5351 55.8074 35.6281 55.8074H16.2153C7.30832 55.8074 0 48.5532 0 39.6426V20.2219C0 11.3113 7.30832 4 16.1582 4Z" fill="#695FFF"/>
</svg>
