<svg width="141" height="60" viewBox="0 0 141 60" fill="none" xmlns="http://www.w3.org/2000/svg">
<path d="M87.2983 30.7282C86.7287 30.1179 85.9828 29.7111 85.0606 29.4805C85.8336 29.2093 86.471 28.7889 86.9728 28.2193C87.6238 27.4734 87.9628 26.524 87.9628 25.3984C87.9628 24.3948 87.7323 23.5404 87.2711 22.8352C86.81 22.13 86.1455 21.601 85.2911 21.2349C84.4231 20.8687 83.3789 20.6788 82.1312 20.6788H76.0554C75.6757 20.6788 75.3909 20.7738 75.201 20.9772C74.9976 21.1671 74.9026 21.4654 74.9026 21.8316V37.577C74.9026 37.9568 74.9976 38.2416 75.201 38.4314C75.3909 38.6213 75.6892 38.7298 76.0554 38.7298H82.4295C84.3282 38.7298 85.7929 38.3094 86.8372 37.455C87.8814 36.6006 88.3968 35.3664 88.3968 33.7661C88.3968 32.5049 88.0306 31.4877 87.2983 30.7282ZM76.9505 22.3741H81.8192C83.1483 22.3741 84.1655 22.6453 84.8571 23.1742C85.5488 23.7167 85.8878 24.5169 85.8878 25.5747C85.8878 26.6054 85.5488 27.3784 84.8571 27.9345C84.1655 28.477 83.1483 28.7482 81.8192 28.7482H76.9505V22.3741ZM85.2911 36.2344C84.613 36.7769 83.5823 37.0481 82.2125 37.0481H76.9369V30.4434H82.2125C83.5823 30.4434 84.5994 30.7147 85.2911 31.2436C85.9692 31.7861 86.3083 32.6133 86.3083 33.739C86.3218 34.8511 85.9692 35.6783 85.2911 36.2344Z" fill="#213768"/>
<path d="M106.421 37.2923L99.4769 21.5604C99.3413 21.2214 99.165 20.9908 98.9615 20.8416C98.7581 20.706 98.5275 20.6246 98.2699 20.6246C98.0122 20.6246 97.7816 20.6924 97.5782 20.8416C97.3748 20.9908 97.1849 21.2214 97.0357 21.5604L90.1191 37.2923C89.9971 37.5635 89.9564 37.7941 89.9835 38.0111C90.0107 38.2145 90.1056 38.3908 90.2548 38.5128C90.4175 38.6349 90.6209 38.7027 90.8922 38.7027C91.1634 38.7027 91.3804 38.6213 91.5432 38.4722C91.7059 38.323 91.8686 38.0924 92.0178 37.7669L93.6317 33.9967H102.854L104.481 37.7669C104.603 38.0653 104.752 38.2959 104.929 38.4586C105.105 38.6213 105.363 38.7027 105.661 38.7027C105.932 38.7027 106.136 38.6485 106.285 38.5264C106.434 38.4043 106.529 38.2416 106.543 38.0246C106.61 37.8076 106.556 37.5635 106.421 37.2923ZM98.2428 23.2285H98.297L102.135 32.2743H94.4047L98.2428 23.2285Z" fill="#213768"/>
<path d="M122.966 20.8959C122.803 20.7196 122.573 20.6382 122.275 20.6382C121.963 20.6382 121.718 20.7196 121.542 20.8959C121.366 21.0722 121.284 21.3163 121.284 21.6418V35.0545L110.937 21.262C110.774 21.0315 110.625 20.8687 110.503 20.7738C110.381 20.6789 110.177 20.6382 109.906 20.6382C109.635 20.6382 109.418 20.7331 109.255 20.9094C109.092 21.0993 108.997 21.357 108.997 21.6825V37.6584C108.997 37.9975 109.079 38.2552 109.255 38.4315C109.418 38.6078 109.662 38.6891 109.987 38.6891C110.286 38.6891 110.53 38.6078 110.693 38.4315C110.855 38.2552 110.95 37.9975 110.95 37.6584V24.2321L121.298 38.0653C121.461 38.2823 121.624 38.445 121.773 38.54C121.922 38.6349 122.125 38.6891 122.369 38.6891C122.641 38.6891 122.844 38.6078 122.98 38.4315C123.115 38.2552 123.197 38.011 123.197 37.6856V21.6418C123.21 21.3163 123.129 21.0722 122.966 20.8959Z" fill="#213768"/>
<path d="M139.593 37.1431L131.225 29.4128L139.186 22.0351C139.39 21.8316 139.498 21.6282 139.539 21.4112C139.566 21.1942 139.512 21.0044 139.376 20.8552C139.227 20.706 138.996 20.6246 138.684 20.6246C138.454 20.6246 138.237 20.6653 138.034 20.7603C137.83 20.8552 137.627 21.0044 137.437 21.1942L129.245 28.8567H129.191V21.696C129.191 21.3434 129.11 21.0857 128.933 20.9094C128.757 20.7331 128.499 20.6518 128.16 20.6518C127.821 20.6518 127.564 20.7331 127.387 20.9094C127.211 21.0857 127.13 21.3434 127.13 21.696V37.6313C127.13 37.9704 127.211 38.228 127.387 38.4179C127.564 38.6078 127.821 38.7027 128.16 38.7027C128.513 38.7027 128.771 38.6078 128.933 38.4179C129.096 38.228 129.191 37.9568 129.191 37.6313V30.1994H129.245L137.844 38.0653C138.061 38.2823 138.264 38.445 138.44 38.5535C138.617 38.662 138.834 38.7163 139.078 38.7163C139.39 38.7163 139.634 38.6349 139.797 38.4722C139.959 38.3094 140.027 38.106 140.014 37.8754C139.973 37.6178 139.851 37.3872 139.593 37.1431Z" fill="#213768"/>
<path d="M67.1995 19.3634V40.0725C67.1995 41.1167 66.9282 41.9304 66.3857 42.5136C65.8433 43.0968 65.0431 43.3816 63.9988 43.3816C62.9953 43.3816 62.2222 43.0968 61.6662 42.5136C61.1101 41.9304 60.8253 41.1167 60.8253 40.0725V32.193V32.1523H49.6774V39.8962C49.6774 41.0354 49.3791 41.7541 48.7823 42.3916C48.1856 43.029 47.3176 43.3409 46.1649 43.3409C45.1613 43.3409 44.3747 43.0696 43.778 42.5407C44.9443 41.9169 45.8258 41.1574 46.5446 40.1674C47.4804 38.879 47.8466 37.455 47.8466 35.7598C47.8466 33.8746 47.3312 32.2472 46.3276 30.9317C45.7173 30.1451 45.0257 29.6162 45.0257 28.9652C45.0257 28.3278 45.3105 27.921 45.7851 27.27C46.6802 26.0358 47.1278 24.5983 47.1278 22.998C47.1278 20.5161 46.1377 18.4818 44.117 17.0443C43.995 16.9629 43.8865 16.8951 43.7644 16.8273C44.3476 16.2712 45.1477 16 46.1649 16C47.3041 16 48.1856 16.3119 48.7823 16.9493C49.3791 17.5867 49.6774 18.3191 49.6774 19.4583V26.7817H60.8253V19.3634C60.8253 18.3191 61.1101 17.5054 61.6662 16.9222C62.2222 16.339 62.9953 16.0542 63.9988 16.0542C65.0431 16.0542 65.8433 16.339 66.3857 16.9222C66.9282 17.5054 67.1995 18.3191 67.1995 19.3634ZM41.147 42.2695C42.4896 41.6592 43.5339 40.8455 44.2933 39.8012C45.0935 38.6756 45.5003 37.3601 45.5003 35.8547C45.5003 34.173 45.0664 32.749 44.1848 31.5962C43.3169 30.4435 42.0556 29.6162 40.4146 29.128C41.7844 28.6397 42.8558 27.8531 43.6288 26.7817C44.4018 25.7104 44.7816 24.4762 44.7816 23.0793C44.7816 20.9094 43.9136 19.1735 42.1777 17.8987C41.8386 17.641 41.4589 17.424 41.0656 17.2206C39.4924 16.4204 37.5259 16.0271 35.1933 16.0271H24.9675C24.8862 16.0271 24.8048 16.0271 24.7234 16.0407C24.6556 16.0407 24.5878 16.0271 24.5336 16.0271C23.1502 16.0271 22.0382 16.7866 21.2245 18.3191L14.0231 31.5013L6.8081 18.3055C6.4148 17.5732 5.92657 17.0036 5.35697 16.6103C4.77381 16.217 4.13639 16.0136 3.43117 16.0136C2.44115 16.0136 1.61387 16.3255 0.97646 16.9629C0.325487 17.6003 0 18.4276 0 19.4447V40.181C0 41.1439 0.298363 41.9033 0.881527 42.4729C1.46469 43.029 2.22416 43.3138 3.14637 43.3138C4.09571 43.3138 4.85518 43.029 5.4519 42.4594C6.03507 41.8898 6.33343 41.1303 6.33343 40.1945V29.2093L10.7817 36.9803C11.2293 37.794 11.704 38.3772 12.1922 38.7163C12.694 39.0553 13.2771 39.2316 13.9552 39.2316C14.6333 39.2316 15.2301 39.0553 15.7183 38.7163C16.2201 38.3772 16.6812 37.794 17.1287 36.9803L24.4929 23.6218C25.5914 21.7096 26.378 21.3705 28.4258 21.3705C29.1853 21.3705 33.932 21.3977 33.932 21.3977C35.3153 21.3977 36.3325 21.6146 36.9699 22.0622C37.6073 22.4962 37.9328 23.2014 37.9328 24.1507C37.9328 25.0594 37.6073 25.7104 36.9699 26.1308C36.3325 26.5376 35.3153 26.7546 33.932 26.7546H33.7693C32.3046 26.7682 31.1247 27.9616 31.1247 29.4399C31.1247 30.9046 32.3046 32.098 33.7693 32.1252V32.1387H34.6779C36.1426 32.1387 37.1869 32.3693 37.8107 32.8168C38.4346 33.2644 38.7465 34.0103 38.7465 35.041C38.7465 36.0717 38.4346 36.8176 37.8107 37.2651C37.1869 37.7127 36.1426 37.9432 34.6779 37.9432H27.8834L27.8969 26.7139C26.2424 26.7817 25.4965 27.2157 24.5064 28.9517L21.5771 34.0374V40.0046C21.5771 41.0625 21.8754 41.8762 22.4586 42.4458C23.0418 43.0154 23.8826 43.3002 24.9811 43.3002H35.6001C37.6208 43.3002 39.3839 42.9883 40.8893 42.3644C40.9706 42.3373 41.0656 42.3102 41.147 42.2695Z" fill="url(#paint0_linear_229_15)"/>
<defs>
<linearGradient id="paint0_linear_229_15" x1="3.47221" y1="47.1714" x2="63.8122" y2="12.3341" gradientUnits="userSpaceOnUse">
<stop offset="0.0502049" stop-color="#213768"/>
<stop offset="0.0887104" stop-color="#274773"/>
<stop offset="0.1511" stop-color="#306184"/>
<stop offset="0.2183" stop-color="#3B7A94"/>
<stop offset="0.2896" stop-color="#4890A2"/>
<stop offset="0.3661" stop-color="#55A2AD"/>
<stop offset="0.4498" stop-color="#5FB0B5"/>
<stop offset="0.5444" stop-color="#68BBBB"/>
<stop offset="0.6592" stop-color="#6DC1BE"/>
<stop offset="0.85" stop-color="#6EC3BF"/>
</linearGradient>
</defs>
</svg>
