<?xml version="1.0" encoding="UTF-8"?>
<svg width="140px" height="60px" viewBox="0 0 140 30" version="1.1" xmlns="http://www.w3.org/2000/svg" xmlns:xlink="http://www.w3.org/1999/xlink">
    <!-- Generator: Sketch 64 (93537) - https://sketch.com -->
    <title>OTP</title>
    <desc>Created with Sketch.</desc>
    <defs>
        <polygon id="path-1" points="0.211876289 0.345525773 14.5347423 0.345525773 14.5347423 22.6856289 0.211876289 22.6856289"></polygon>
        <polygon id="path-3" points="0 0.290103093 27.6868041 0.290103093 27.6868041 27.9765464 0 27.9765464"></polygon>
    </defs>
    <g id="Page-1" stroke="none" stroke-width="1" fill="none" fill-rule="evenodd">
        <g id="Bank360_Logok_Banki_Biztositoi" transform="translate(-82.000000, -933.000000)">
            <g id="OTP" transform="translate(82.000000, 918.000000)">
                <path d="M43.5985258,25.8751134 C42.2815155,25.8751134 40.7891443,26.5455258 39.9289381,30.6286186 C38.9720309,35.1699588 40.8807938,35.4600619 41.8059485,35.4600619 C42.6459485,35.4600619 44.4356392,35.0032577 45.3275979,30.6538763 C45.9503814,27.6114021 45.4553299,25.8751134 43.5985258,25.8751134 M50.1446082,30.6538763 C48.9401753,37.526866 44.6629588,38.4029485 41.0417216,38.4029485 C37.4681134,38.4029485 34.1752268,35.9406804 35.1061546,30.6185155 C35.834299,26.4596495 38.3045052,22.6096495 44.3115155,22.9040825 C48.4999691,23.1075876 50.9644021,25.9797526 50.1446082,30.6538763" id="Fill-1" fill="#00684B"></path>
                <path d="M59.2661856,37.8154536 L59.0410309,38.0398866 C58.1447423,38.2073093 57.0904124,38.3465876 56.5195876,38.3465876 C54.402268,38.3465876 51.2970103,38.0268969 52.6104124,32.6888557 C53.4994845,29.0784433 54.1359794,26.3794742 54.1359794,26.3794742 L52.1745361,26.4357629 L52.0063918,26.2113299 L52.8196907,23.3810206 L53.0159794,23.240299 L54.865567,23.240299 L55.6781443,19.6248351 L55.874433,19.4285464 C57.9758763,18.9515361 58.5373196,18.8115361 60.4706186,18.2508144 L60.6387629,18.4182371 L59.4061856,23.2965876 L62.2653608,23.240299 L62.3779381,23.4365876 C61.9839175,24.6128763 61.8727835,24.9210206 61.5083505,26.2394742 L61.2839175,26.4357629 L58.7054639,26.3794742 C58.7054639,26.3794742 58.182268,28.5545258 57.4490722,31.582567 C56.656701,34.8566907 57.0738144,34.6907113 57.8669072,35.0039072 C58.5438144,35.2716392 59.4343299,34.9288557 59.9394845,34.761433 L60.1054639,34.9007113 L59.2661856,37.8154536 Z" id="Fill-3" fill="#00684B"></path>
                <path d="M67.1373608,35.0119897 C68.4666392,35.1714742 69.9121031,34.7298247 70.8928247,33.9194124 C72.014268,32.9653918 73.0238557,31.0046701 73.0238557,28.8743608 C73.0238557,26.5196186 71.5098351,26.2396186 70.9505567,26.2396186 C70.1372577,26.2396186 69.5202474,26.6596186 68.9313814,27.0521959 L67.1373608,35.0119897 Z M69.4076701,24.2774536 C70.1372577,23.7730206 71.3424124,22.932299 73.1616907,22.932299 C75.9667423,22.932299 77.8437526,25.0337423 77.8437526,28.5936392 C77.8437526,30.6113711 77.1437526,32.9935361 75.6860206,34.7608557 C72.9105567,38.1526082 69.4076701,38.1237423 66.4366392,38.1237423 L64.8410722,44.8235361 L64.6447835,44.9628144 C64.0003505,44.9628144 63.3833402,44.9346701 62.7381856,44.9346701 C61.7863299,44.9346701 60.9456082,44.9909588 59.9078763,45.0191031 L59.7678763,44.8235361 C59.7678763,44.8235361 60.7550928,41.8510619 61.9840619,36.7453918 C63.2743711,31.385701 64.4802474,25.1059072 64.5870515,23.8285876 L64.7833402,23.632299 L69.5765361,22.847866 L69.7439588,23.0441546 L69.4076701,24.2774536 Z" id="Fill-5" fill="#00684B"></path>
                <path d="M81.5171649,35.8802784 C83.1040722,35.9553299 85.4407732,35.9084227 87.2636598,34.676567 C89.3384021,33.247701 90.3191237,30.7529588 90.3191237,28.9574948 C90.3191237,26.4079072 88.7776804,25.4257423 86.9829381,25.4257423 C85.5540722,25.4257423 84.5444845,26.0434742 83.6467526,26.6041959 C83.6467526,26.6041959 81.6918041,35.1939897 81.5171649,35.8802784 L81.5171649,35.8802784 Z M78.0979897,37.9268763 C78.2841753,37.0753299 79.4943814,32.0973918 80.7276804,26.4966701 C81.7848969,21.6919278 82.5209794,18.6956392 82.7786082,16.4570825 L83.0030412,16.2607938 L86.0585052,15.7282165 L86.1977835,15.9245052 L85.4140722,19.0362577 L84.1244845,24.4183196 C85.3029381,23.7731649 86.4207732,23.1561546 88.2162371,23.1561546 C90.991701,23.1561546 93.3190206,25.0338866 93.3190206,28.5656392 C93.3190206,29.9952268 92.8687113,32.6862577 90.991701,34.8439897 C88.4688144,37.7305876 85.3563402,37.9268763 81.7423196,38.0675979 L80.2008763,38.0675979 L78.2387113,38.0957423 L78.0979897,37.9268763 Z" id="Fill-7" fill="#81BA27"></path>
                <path d="M106.27032,25.5942474 C105.848876,25.5942474 105.431763,25.5661031 105.01032,25.5661031 C104.085887,25.5661031 102.263,25.6223918 100.609701,26.7438351 C97.6653711,28.761567 97.6090825,32.3777526 97.6090825,32.5170309 C97.6090825,33.8629072 98.3393918,36.0213608 100.888979,36.0213608 C101.64599,36.0213608 102.89733,35.8438351 104.253309,34.6466186 L106.27032,25.5942474 Z M108.345062,29.1541443 C107.36434,33.4703299 107.166608,34.5354845 106.60733,37.8702268 L106.409598,38.0679588 L103.777021,38.1242474 L103.636299,37.9265155 L103.831866,36.8065155 C103.355577,37.1983711 102.122278,38.2339381 99.7401134,38.2339381 C96.8802165,38.2339381 94.5550619,36.2169278 94.5550619,32.7133196 C94.5550619,30.5000206 95.6202165,28.0889897 96.7957835,26.688268 C99.4031031,23.6320825 103.02001,23.4646598 105.597742,23.4646598 L109.465784,23.4928041 L109.605062,23.7165155 L108.345062,29.1541443 Z" id="Fill-9" fill="#81BA27"></path>
                <path d="M122.225557,37.9000309 L122.001124,38.0674536 L119.141948,38.1526082 L119.028649,37.9548763 C119.440711,36.0677629 121.165454,29.7461134 121.188546,27.7810619 C121.205144,26.0988969 120.150814,25.5381753 118.833082,25.5381753 C117.095351,25.5381753 115.946485,26.4077629 115.105041,27.0240515 C114.068753,31.7320928 113.731742,33.2194124 112.835454,37.9000309 L112.638443,38.0674536 L109.77999,38.1526082 L109.640711,37.9548763 C109.640711,37.9548763 110.491536,34.5227113 111.258649,30.9570412 C111.860505,28.1642577 112.354835,25.8643608 112.582155,23.9418866 L112.779165,23.7455979 C114.096897,23.576732 114.40432,23.5204433 115.750196,23.2404433 L115.890196,23.436732 L115.496897,24.8655979 C116.591639,24.1374536 117.993082,23.1560103 120.31968,23.1560103 C121.244835,23.1560103 124.270711,23.407866 124.270711,26.7996186 C124.270711,28.826732 122.499062,35.9198247 122.225557,37.9000309" id="Fill-11" fill="#81BA27"></path>
                <g id="Group-15" transform="translate(124.845361, 15.431619)">
                    <mask id="mask-2" fill="white">
                        <use xlink:href="#path-1"></use>
                    </mask>
                    <g id="Clip-14"></g>
                    <path d="M8.08795876,14.1073814 L12.4330103,22.3767629 L12.2655876,22.6011959 L9.15383505,22.6856289 L8.92940206,22.5160412 C8.20342268,20.5444948 5.03393814,14.3599588 5.03393814,14.3599588 C4.22063918,17.9198557 4.05105155,18.7598557 3.35249485,22.4597526 L3.15476289,22.6293402 L0.323010309,22.6856289 L0.211876289,22.5160412 C0.211876289,22.5160412 1.70857732,16.3019175 3.00105155,10.5482062 C3.60723711,7.85789691 4.55043299,3.5994433 4.92063918,1.01882474 L5.11692784,0.849958763 L8.17094845,0.345525773 L8.34053608,0.541814433 C7.77620619,2.47872165 5.11692784,13.9673814 5.11692784,13.9673814 C7.12672165,12.208 10.471567,8.69861856 10.918268,8.22160825 L11.227134,8.05346392 L14.4500206,8.05346392 L14.5351753,8.30531959 C13.7399175,8.93459794 12.2655876,10.2689278 11.731567,10.7452165 L8.08795876,14.1073814 Z" id="Fill-13" fill="#81BA27" mask="url(#mask-2)"></path>
                </g>
                <g id="Group-18" transform="translate(0.000000, 15.431619)">
                    <mask id="mask-4" fill="white">
                        <use xlink:href="#path-3"></use>
                    </mask>
                    <g id="Clip-17"></g>
                    <path d="M0,14.133866 C0,6.49231959 6.18958763,0.298402062 13.8268041,0.289742268 L13.8268041,5.29221649 C8.95134021,5.30087629 5.00247423,9.25551546 5.00247423,14.133866 C5.00247423,19.0165464 8.96072165,22.9740722 13.8434021,22.9740722 C18.6972165,22.9740722 22.6850515,19.0533505 22.6850515,14.0992268 L27.6868041,14.1028351 C27.6868041,21.7790206 21.4885567,27.9765464 13.8434021,27.9765464 C6.19752577,27.9765464 0,21.7790206 0,14.133866" id="Fill-16" fill="#00684B" mask="url(#mask-4)"></path>
                </g>
                <path d="M7.7362268,29.5654845 C7.7362268,26.173732 10.4849897,23.4235258 13.8767423,23.4235258 C17.2684948,23.4235258 20.0172577,26.173732 20.0172577,29.5654845 C20.0172577,32.9557938 17.2684948,35.7038351 13.8781856,35.7038351 C10.4849897,35.7038351 7.7362268,32.9557938 7.7362268,29.5654845" id="Fill-19" fill="#81BA27"></path>
                <path d="M18.1349794,21.7862474 C18.1349794,19.8421237 19.7117835,18.2667629 21.6551856,18.2667629 C23.5985876,18.2667629 25.1739485,19.8421237 25.1739485,21.7862474 C25.1739485,23.7303711 23.5985876,25.3071753 21.6551856,25.3071753 C19.7117835,25.3071753 18.1349794,23.7303711 18.1349794,21.7862474" id="Fill-21" fill="#00684B"></path>
                <rect id="140x60-copy-4" x="0" y="0" width="140" height="60" rx="1"></rect>
            </g>
        </g>
    </g>
</svg>