<?xml version="1.0" standalone="no"?>
<!DOCTYPE svg PUBLIC "-//W3C//DTD SVG 20010904//EN"
 "http://www.w3.org/TR/2001/REC-SVG-20010904/DTD/svg10.dtd">
<svg version="1.0" xmlns="http://www.w3.org/2000/svg"
 width="700.000000pt" height="700.000000pt" viewBox="0 0 700.000000 700.000000"
 preserveAspectRatio="xMidYMid meet">
<metadata>
Created by potrace 1.14, written by Peter Selinger 2001-2017
</metadata>
<g transform="translate(0.000000,700.000000) scale(0.100000,-0.100000)"
fill="#000000" stroke="none">
<path d="M3070 6984 c-763 -102 -1451 -440 -1994 -980 -555 -553 -880 -1213
-993 -2015 -25 -178 -25 -661 1 -844 109 -790 429 -1448 974 -1999 554 -560
1232 -895 2032 -1003 169 -22 637 -25 800 -5 811 103 1498 433 2054 988 552
552 883 1224 992 2019 26 184 26 666 0 845 -78 554 -255 1035 -540 1463 -568
855 -1443 1400 -2459 1532 -156 20 -713 19 -867 -1z m5 -2180 c236 -39 440
-145 597 -312 35 -37 77 -89 93 -115 17 -26 33 -46 36 -44 3 1 34 35 68 75
159 185 379 321 620 383 164 42 404 43 596 4 389 -81 668 -322 779 -673 60
-190 59 -171 63 -1114 l4 -868 -435 0 -436 0 0 773 c0 835 0 836 -55 951 -49
104 -133 175 -263 224 -55 20 -91 25 -197 29 -146 6 -225 -8 -323 -54 -72 -34
-170 -131 -205 -203 -60 -124 -59 -109 -55 -956 l3 -774 -437 0 -438 0 0 778
c0 844 1 832 -56 949 -33 69 -108 150 -176 190 -151 92 -431 99 -606 16 -72
-34 -170 -131 -205 -203 -58 -120 -57 -105 -57 -952 l0 -778 -435 0 -435 0 0
1013 c0 556 -3 1157 -7 1335 l-6 322 441 0 442 0 0 -172 0 -172 50 56 c220
247 621 360 1035 292z"/>
</g>
</svg>
